<svg xmlns="http://www.w3.org/2000/svg" version="1.1" viewBox="33 32 1876 527">
<path transform="translate(299,32)" d="m0 0h13l13 4 11 7 12 11 8 8 7 8 53 53 8 7 10 10 9 6 2-5 11-15 9-10 7-7 11-9 12-9 22-12 17-6 16-4 15-2h8l7 2-2 17-4 19-8 22-8 17-10 15-9 11-15 16-11 9-13 11 5 5 5 6 8 7 40 40 9 11 7 11 2 5 1 6v17l-4 11-7 11-8 8-7 8-7 7-8 7-14 14-8 7-7 7-8 7-9 9-8 7-12 12-8 7-8 8-8 7-9 9-8 7-8 8-8 7-11 11-8 7-9 9-8 7-10 10-8 7-14 13-14 11-6 2-11-4-10-9-6-12-2-11v-36l3-27 5-24 8-30 7-21 13-31 12-21 1-2v-6l-5-6-8-7-12-11h-5l-12 9-15 9-11 7-33 15-29 11-25 7-25 5-17 2h-30l-22-3-15-4-18-8-14-11-8-10-6-12-2-7v-12l4-15 3-10 3-2 8 6 13 10 15 9 14 6 26 8 25 5 16 2 17 1h38l37-2 33-1-48-7-46-8-24-6-21-7-18-8-19-10-17-12-13-12-6-10-2-5v-6l7-8 14-6 16-5 9-7 10-10 8-7 22-22 7-8 7-7 8-7 18-18 7-8 12-11 22-22 7-8 15-15h2l2-4 8-7 10-7 12-5zm26 58-3 5-2 10-3 5-8 5-10 4-1 2 2 3 14 5h3l3 11 3 10 3 2h3l2-15 2-8 9-3 6-3-1-4-14-7-2-3-2-17zm169 32-10 4-8 7-4 7-1 4v9l5 10 6 7 12 6 9-1 11-7 7-9 2-5v-10l-4-9-7-8-8-4zm-264 79-9 3-4 5 1 8 4 7 5 4 7 1 3-3v-5l4-1 1-3v-9l-2-4-8-3zm164 187-8 6-3 8 1 5 3 3 12 3 6-2 5-5-1-7-6-10-2-1z" fill="#4341CB"/>
<path transform="translate(511,221)" d="m0 0 5 1 42 42 9 11 7 11 2 5 1 6v17l-4 11-7 11-8 8-7 8-7 7-8 7-14 14-8 7-7 7-8 7-9 9-8 7-12 12-8 7-8 8-8 7-9 9-8 7-8 8-8 7-11 11-8 7-9 9-8 7-10 10-8 7-14 13-14 11-6 2-11-4-10-9-6-12-2-11v-36l3-27 5-24 8-30 7-21 13-31 12-21 2-8 6 1 11 5 17 2 11 5 12 7 8 5 9 3 21-1 10-5 8-8 8-14 5-11 5-12 9-19 5-19 4-18 4-13 8-8zm-117 167-8 6-3 8 1 5 3 3 12 3 6-2 5-5-1-7-6-10-2-1z" fill="#4341CB"/>
<path transform="translate(565,67)" d="m0 0h8l7 2-2 17-4 19-8 22-8 17-10 15-9 11-15 16-11 9-13 11 1 3-9 5-8 6-8 9-3 6v5l5 2 1 2v8l-5 13-8 20-4 9-3 9-7 14-2 3-2 7-4 5-10 7-4 3-9-1-13-8-9-7v-2h-2l-6-7-9-5h-8l-5 4-8 1-13-8v-2l-4-2-9-9-3-5-1-10 4-14v-7l-2-4-3-1v-2l-4-2-5-4-8-10-3-3-4-10v-10l4-7 11-7 10-6 18-8 21-9 12-5 11-4h14l3 4v2l6-3 3-1v-2l13-13 5-12 6 3 2-5 11-15 9-10 7-7 11-9 12-9 22-12 17-6 16-4zm-71 55-10 4-8 7-4 7-1 4v9l5 10 6 7 12 6 9-1 11-7 7-9 2-5v-10l-4-9-7-8-8-4z" fill="#9291FC"/>
<path transform="translate(675,188)" d="m0 0h163v38l-12 1h-105v48h108v37l-1 1h-107l1 57h59l62 1v36l-2 2h-166l-1-6v-129z" fill="#4442CC"/>
<path transform="translate(1121,243)" d="m0 0h30l14 2 14 7 9 9 6 10 5 11 4 18 2 20v21l-2 18-4 16-8 16-9 10-5 4-9 4-9 2-9 1h-29l-14-3-10-5-7-5 1 7v63h-43l-1-1v-216l1-7 39 1 3 9 3 3 5-3 4-5 3-4 6-2zm-6 35-10 3-9 8-5 11-2 11v29l3 14 6 12 6 5 9 4 4 1h18l11-4 8-7 4-8 2-10v-33l-2-12-4-9-6-8-8-5-8-2z" fill="#4442CB"/>
<path transform="translate(1829,243)" d="m0 0h19l14 3 16 7 10 8 8 10 7 15 4 19 2 17v15l-10 1-103 1 5 22 4 7 8 5 12 3h23l6-3 6-9 45-2 1 1-1 11-6 10-9 10-9 8-11 6-13 3-9 1h-35l-17-3-10-4-11-8-8-9-8-16-3-14-3-24v-29l3-16 5-13 7-12 9-8 14-7 17-4zm-6 35-16 4-5 6-3 8-2 16 1 1h51l13-1v-8l-4-13-6-9-5-3-5-1z" fill="#4442CB"/>
<path transform="translate(1299,243)" d="m0 0h19l12 2 17 7 9 7 7 8 7 15 4 17 2 20v18l-4 1-104 1 1 13 4 12 7 6 10 5 4 1h20l9-3 7-6 2-3 23-1h17l1 3-3 14-6 11-9 9-11 7-16 4-9 1h-35l-16-3-11-4-11-8-9-10-7-15-5-19-2-17v-29l2-14 4-13 6-11 9-10 10-7 15-5 17-3zm-6 35-12 3-6 4-4 6-3 14v8h55l8-1 1-7-2-11-5-9-6-5-6-2z" fill="#4442CB"/>
<path transform="translate(1656,242)" d="m0 0 20 1 18 4 13 5 8 6 6 8 5 11 2 7v8l-5 2h-19l-14-2-6-4-9-11-10-3h-18l-8 3-6 7-1 7 3 7 8 4 25 5 21 5 20 7 10 6 8 9 4 9 3 14v12l-3 12-6 10-9 10-11 7-11 3-8 1h-40l-19-3-12-4-12-8-5-4-6-8-4-9-2-9v-9l1-1 39 1 9 17 3 3 10 2h25l10-3 5-7 1-3v-8l-3-5-10-4-44-10-21-7-9-5-5-5-4-6-3-10-1-7v-15l4-16 5-8 9-8 10-5 16-4z" fill="#4442CB"/>
<path transform="translate(1490,244)" d="m0 0h31l11 4 10 9 6 10 3 7 2 17 1 31 1 86-6 1h-19l-18-1-1-1-1-105-2-9-4-7-7-5-11-2-14 1-10 4-7 8-3 6-1 6-1 83v20l-1 1h-42l-1-2v-153l1-7h38l2 1 2 14 5-3 9-7 15-5z" fill="#4442CC"/>
<path transform="translate(864,244)" d="m0 0 48 1 6 2 22 44h3l14-24 13-20 3-2 49-1v3l-8 9-11 17-29 44-6 9 4 7 12 16 11 16 14 20 10 13 6 9v1h-51l-5-5-8-11-11-18-8-11-3-1-8 16-9 16-8 13-4 1h-49l2-5 12-15 9-14 32-48-11-17-29-43-10-17z" fill="#4442CC"/>
<path transform="translate(42,272)" d="m0 0 7 4 12 10 18 11 14 6 26 8 25 5 16 2 17 1h38l37-2 33-1 5-1v3l-13 8-33 15-29 11-25 7-25 5-17 2h-30l-22-3-15-4-18-8-14-11-8-10-6-12-2-7v-12l4-15 3-10z" fill="#4442CB"/>
<path transform="translate(429,136)" d="m0 0 8 6-1 7-5 8-10 11h-2v2l-6 4h-3l-3-5h-14l-11 4-12 5-15 6-14 7-16 7-10 7-5 3-3 6v10l4 10 10 11v2l3 1v2l4 2 5 4 3 4v7l-4 15 1 9 6 8 7 7 5 4 10 6 10-2 3-3h8l10 6 5 5v2h2v2l4 2 11 8 7 4 9 1 12-9h2l2-4 2-3 2-7 6-11 4-8 4-13 4-9 4-8 5-15 1-2v-8l-6-6 1-5 6-9 8-8 11-7 6 1 6 7 4 4-6 2-2 4-7 8-4 15-7 30-7 16-4 9-6 13-8 16-6 8-9 8-7 3-21 1-11-4-11-7-11-6-7-3-17-2-11-5-8-3-4-5-8-7-10-9-1-6-1-2v-12l2-7v-11l-4-6-10-13-7-8-6-14 1-10 5-12 9-10 21-11 11-5 21-8 13-6 11-4 17-5 11-2 7-4h3l2-4 2-5z" fill="#5553D8"/>
<path transform="translate(437,143)" d="m0 0 3 2-1 5-5 10-5 6h-2l-2 4-7 7-8 6-4 5-13 10-2-1 1-4 6-9 2-4v-4l-2-1h-6l-7 2-16 6-14 6-5 3-14 5h-2v2l-7 3-4 4-9 4-3 7 1 9 9 13 8 9 7 6 5 5 1 5-3 8-2 7v8l3 5 7 8 9 7 7 3 5-1 6-4h8l8 4 8 7 5 6 9 7 3 1v2l10 3 5 1 5-5 8-6 7-18 6-9 6-18 9-19 1-9-3-4-5 1-9 6-6 1-5-1 6-9 7-6 7-8 5-6h2l2-4 8-8h2l1-3 8-5 7-1 2 4-9 5-8 6-8 9-3 6v5l5 2 1 2v8l-5 13-8 20-4 9-3 9-7 14-2 3-2 7-4 5-10 7-4 3-9-1-13-8-9-7v-2h-2l-6-7-9-5h-8l-5 4-8 1-13-8v-2l-4-2-9-9-3-5-1-10 4-14v-7l-2-4-3-1v-2l-4-2-5-4-8-10-3-3-4-10v-10l4-7 11-7 10-6 18-8 21-9 12-5 11-4h14l3 4v2l6-3 3-1v-2l13-13z" fill="#7A79F5"/>
<path transform="translate(435,141)" d="m0 0 2 1-1 7-5 8-10 11h-2v2l-6 4h-3l-3-5h-14l-11 4-12 5-15 6-14 7-16 7-10 7-5 3-3 6v10l4 10 10 11v2l3 1v2l4 2 5 4 3 4v7l-4 15 1 9 6 8 7 7 5 4 10 6 10-2 3-3h8l10 6 5 5v2h2v2l4 2 11 8 7 4 9 1 12-9h2l2-4 2-3 2-7 6-11 4-8 4-13 4-9 4-8 5-15 1-2v-8l-6-6 1-5 6-9 8-8 11-7 6 1 2 3-6 1-5 4h-2v2l-5 4-2 3v13l-1 11-7 14-2 5-2 8-5 10-5 12-4 10-9 19-6 8-8 6-4 2h-12l-10-5-8-7-8-6-8-7-5-2-1-1h-6l-8 4-10-2-10-5v-2h-2l-5-5v-2l-4-2-2-4h-2l-4-7-1-10 4-14-2-9-12-12v-2l-4-2-7-10-3-7v-9l2-8 3-5 10-7 16-8 21-10 16-6 10-5 9-3 11-3 14 1 7-4h2l2-4 4-5h2z" fill="#6967E3"/>
<path transform="translate(228,215)" d="m0 0h2l1 7-4-1-2-3zm-1 3v2h2v-2z" fill="#706FEA"/>
</svg>